<svg xmlns="http://www.w3.org/2000/svg" width="17" height="22.028"><path d="M5.986 21.07v-2.155h-.958V17H4.07v-1.915h-.957V12.93H1.915v-.958H.958v-1.916h2.155v.958h.957v2.873h.958V.957h1.916v9.1H7.9V5.985h2.155v4.07h.958V6.944h1.916v4.07h.957V7.901h1.198V9.1h.957v6.943h-.957v2.873h-1.198v2.155H5.986z" fill="#fefefe"/><path d="M5.028 22.028v-3.113H4.07V17h-.957v-1.915H1.915V12.93H.958v-.958H0V9.099h3.113v.957h.957V.958h.958V0h1.916v.958H7.9v4.07h2.155v.958h2.874v.958h2.155V7.9h.957V9.1H17v6.943h-.958v2.873h-.957v3.113H5.028zm8.86-.958v-2.155h1.197v-2.873h.957V9.1h-.957V7.9h-1.198v3.113h-.957v-4.07h-1.916v3.112h-.958v-4.07H7.901v4.07h-.957V.958H5.028v12.93H4.07v-2.874h-.957v-.958H.958v1.916h.957v.958h1.198v2.155h.957V17h.958v1.915h.958v2.155h7.901z"/></svg>